<svg width="30" height="30" viewBox="0 0 42 42" fill="none" xmlns="http://www.w3.org/2000/svg">
<path d="M38.6165 0H3.38352C1.51485 0 0 1.51485 0 3.38352V38.6165C0 40.4851 1.51485 42 3.38352 42H38.6165C40.4851 42 42 40.4851 42 38.6165V3.38352C42 1.51485 40.4851 0 38.6165 0Z" fill="#FAE300"/>
<path d="M20.9989 8.75C13.2661 8.75 7 13.8065 7 20.0442C7 24.1045 9.65617 27.6623 13.6419 29.6532C13.3517 30.7693 12.5814 33.6957 12.4277 34.3211C12.2383 35.0983 12.7069 35.0879 13.0137 34.8785C13.2545 34.7149 16.8507 32.2207 18.4022 31.1438C19.2626 31.2739 20.1313 31.3392 21.0011 31.3392C28.7339 31.3392 35 26.2812 35 20.0442C35 13.8072 28.7317 8.75 21.0011 8.75" fill="#391B1B"/>
<path d="M15.3251 17.6187H11.2013C11.0153 17.6187 10.8369 17.6905 10.7054 17.8184C10.5739 17.9463 10.5 18.1198 10.5 18.3007C10.5 18.4816 10.5739 18.6551 10.7054 18.783C10.8369 18.9109 11.0153 18.9828 11.2013 18.9828H12.5418V23.7871C12.5426 23.9634 12.6149 24.1323 12.7431 24.257C12.8713 24.3817 13.045 24.4521 13.2263 24.4528H13.376C13.5572 24.4521 13.7307 24.3816 13.8587 24.2569C13.9867 24.1322 14.0587 23.9633 14.0591 23.7871V18.9828H15.3251C15.5111 18.9828 15.6894 18.9109 15.821 18.783C15.9525 18.6551 16.0264 18.4816 16.0264 18.3007C16.0264 18.1198 15.9525 17.9463 15.821 17.8184C15.6894 17.6905 15.5111 17.6187 15.3251 17.6187V17.6187Z" fill="#FAE300"/>
<path d="M25.235 23.1699H23.3174V18.2633C23.3206 18.1642 23.3033 18.0654 23.2664 17.973C23.2296 17.8805 23.1741 17.7962 23.1031 17.725C23.0322 17.6538 22.9472 17.5972 22.8533 17.5586C22.7595 17.5199 22.6586 17.5 22.5566 17.5C22.4547 17.5 22.3538 17.5199 22.2599 17.5586C22.166 17.5972 22.081 17.6538 22.0101 17.725C21.9391 17.7962 21.8836 17.8805 21.8468 17.973C21.81 18.0654 21.7926 18.1642 21.7958 18.2633V23.5521C21.7965 23.5919 21.8007 23.6316 21.8082 23.6708C21.8 23.7096 21.7958 23.7491 21.7958 23.7887C21.7957 23.8701 21.8121 23.9507 21.8441 24.0259C21.876 24.1011 21.923 24.1695 21.9821 24.227C22.0413 24.2846 22.1116 24.3302 22.1889 24.3613C22.2662 24.3924 22.3491 24.4084 22.4328 24.4083H25.235C25.4002 24.4028 25.5566 24.3352 25.6715 24.2197C25.7863 24.1042 25.8505 23.9498 25.8505 23.7891C25.8505 23.6284 25.7863 23.474 25.6715 23.3585C25.5566 23.2429 25.4002 23.1753 25.235 23.1699V23.1699Z" fill="#FAE300"/>
<path d="M31.3637 23.3951L29.227 20.6654L31.1577 18.7869C31.2201 18.7262 31.2695 18.6542 31.3033 18.575C31.337 18.4958 31.3544 18.4108 31.3544 18.3251C31.3544 18.2393 31.337 18.1544 31.3033 18.0751C31.2695 17.9959 31.2201 17.9239 31.1577 17.8633C31.0954 17.8026 31.0213 17.7545 30.9399 17.7217C30.8584 17.6889 30.7711 17.672 30.6829 17.672C30.5947 17.672 30.5074 17.6889 30.4259 17.7217C30.3444 17.7545 30.2704 17.8026 30.2081 17.8633L27.8178 20.188V18.2633C27.821 18.1642 27.8036 18.0654 27.7668 17.973C27.73 17.8805 27.6745 17.7962 27.6035 17.725C27.5325 17.6538 27.4476 17.5972 27.3537 17.5586C27.2598 17.5199 27.1589 17.5 27.057 17.5C26.955 17.5 26.8541 17.5199 26.7602 17.5586C26.6664 17.5972 26.5814 17.6538 26.5105 17.725C26.4395 17.7962 26.384 17.8805 26.3471 17.973C26.3103 18.0654 26.293 18.1642 26.2961 18.2633V23.7148C26.3023 23.9071 26.3851 24.0895 26.5271 24.2234C26.6691 24.3573 26.8592 24.4322 27.057 24.4322C27.2548 24.4322 27.4448 24.3573 27.5868 24.2234C27.7288 24.0895 27.8117 23.9071 27.8178 23.7148V22.0324L28.2525 21.6104L30.2738 24.1901C30.3822 24.3307 30.5436 24.4237 30.7224 24.4485C30.9013 24.4734 31.083 24.4281 31.2275 24.3227C31.372 24.2172 31.4676 24.0603 31.4931 23.8863C31.5187 23.7124 31.4721 23.5357 31.3637 23.3951Z" fill="#FAE300"/>
<path d="M21.2269 23.5722L19.1712 18.1014L19.1646 18.0957C19.0331 17.7625 18.6533 17.5195 18.2018 17.5195C17.6999 17.5195 17.285 17.8179 17.2025 18.208C17.1878 18.2373 17.1749 18.2675 17.1637 18.2982L15.1461 23.5722C15.1086 23.6557 15.0892 23.7459 15.0892 23.8371C15.0892 23.9283 15.1086 24.0185 15.146 24.1021C15.1835 24.1856 15.2383 24.2608 15.3069 24.3228C15.3756 24.3849 15.4567 24.4325 15.5452 24.4627C15.6336 24.4929 15.7276 24.505 15.821 24.4983C15.9145 24.4915 16.0056 24.4661 16.0885 24.4236C16.1715 24.3811 16.2445 24.3224 16.303 24.2512C16.3616 24.18 16.4044 24.0979 16.4288 24.0098L16.778 23.0393H19.5913L19.9404 24.0098C20.0004 24.1758 20.1257 24.3117 20.2887 24.3878C20.4517 24.4639 20.6392 24.4738 20.8098 24.4155C20.9803 24.3572 21.1201 24.2354 21.1984 24.0768C21.2766 23.9182 21.2868 23.736 21.2269 23.57V23.5722ZM17.2244 21.8024L18.1697 19.1785C18.1806 19.1785 18.1894 19.1785 18.2004 19.1785L19.1442 21.7988L17.2244 21.8024Z" fill="#FAE300"/>
</svg>
